<svg width="235" height="80" viewBox="0 0 235 80" fill="none" xmlns="http://www.w3.org/2000/svg">
<path d="M18.7676 27.3018C21.0881 27.3018 23.1731 27.9556 25.0312 29.2633C26.8806 30.5754 28.2764 32.2984 29.2142 34.419L35.4385 32.7932C34.1081 29.3075 31.9316 26.511 28.9132 24.3904C25.8992 22.261 22.5188 21.2007 18.7676 21.2007C13.769 21.2007 9.48572 22.9944 5.9134 26.5817C2.34108 30.1822 0.552734 34.5515 0.552734 39.7071C0.552734 44.8628 2.30618 49.1305 5.80871 52.7929C9.31561 56.4553 13.6338 58.2843 18.7633 58.2843C22.5581 58.2843 25.9515 57.2063 28.9394 55.0592C31.9316 52.9122 34.0994 50.1201 35.4297 46.6874L29.2055 45.0616C28.2677 47.1866 26.885 48.8875 25.0574 50.1775C23.221 51.4631 21.1274 52.1125 18.7589 52.1125C15.457 52.1125 12.6437 50.902 10.3232 48.4855C8.0027 46.0733 6.84246 43.1443 6.84246 39.7027C6.84246 36.2612 8.0027 33.394 10.3232 30.9509C12.6437 28.5079 15.457 27.2929 18.7589 27.2929L18.7676 27.3018Z" fill="#004438"/>
<path d="M68.5184 27.5007C65.6135 23.2993 61.5308 21.1964 56.2661 21.1964C51.3504 21.1964 47.1717 22.9989 43.7085 26.5862C40.2495 30.1823 38.5179 34.556 38.5179 39.7073C38.5179 44.8585 40.2495 49.1924 43.7085 52.8283C47.1717 56.4686 51.3504 58.2844 56.2661 58.2844C58.8527 58.2844 61.208 57.7366 63.3279 56.6233C65.4477 55.5188 67.1794 53.9902 68.5184 52.0464V57.7498H75.2094V21.8105H68.5184V27.5007ZM65.3692 48.4546C63.0051 50.8977 60.1699 52.1171 56.868 52.1171C53.5662 52.1171 50.6786 50.9066 48.3363 48.4856C45.9941 46.0734 44.8207 43.1444 44.8207 39.7028C44.8207 36.2613 45.981 33.3985 48.3014 30.9555C50.6176 28.5124 53.4746 27.293 56.868 27.293C60.2615 27.293 63.0051 28.5256 65.3692 30.9908C67.7333 33.4516 68.9197 36.3585 68.9197 39.7028C68.9197 43.0472 67.7377 46.0116 65.3692 48.4502V48.4546Z" fill="#004438"/>
<path d="M93.1234 22.725C90.6895 23.9708 88.9361 25.8351 87.8674 28.318V21.8105H81.1677V57.7498H87.8674V39.5747C87.8674 35.4175 89.2719 32.3162 92.0853 30.2839C94.8899 28.2473 98.1787 27.7702 101.926 28.8614V21.6779C98.4841 21.1345 95.5529 21.4791 93.1234 22.725Z" fill="#004438"/>
<path d="M163.043 57.794C162.742 57.8912 162.467 57.9265 162.136 57.9265C160.444 57.9265 159.07 56.5349 159.07 54.8208C159.07 53.6235 159.741 52.5853 160.723 52.064C160.745 52.0552 160.766 52.042 160.788 52.0331C160.845 52.0066 160.884 51.9801 160.941 51.958C160.191 52.1877 159.035 52.3777 158.646 52.3777C152.605 52.3777 148.025 49.1792 148.025 41.2977L148.104 37.4409V18.3248C148.104 10.112 144.418 4.95188 139.271 2.45137C139.132 2.3851 138.988 2.32767 138.844 2.27907C138.949 2.32767 139.053 2.36743 139.158 2.41603C141.234 3.41005 141.788 6.14471 140.24 7.86768C139.25 8.97214 137.671 9.30348 136.345 8.6894C139.284 10.3373 141.186 13.6153 141.186 18.8593V39.1153L141.169 40.8824C141.169 52.8637 149.404 58.3683 158.537 58.3683C160.5 58.3683 162.201 58.0149 162.921 57.8294C163.139 57.7896 163.349 57.7233 163.549 57.6394C163.388 57.6924 163.226 57.7454 163.069 57.794L163.039 57.8029V57.794H163.043Z" fill="#3BD4AE"/>
<path d="M140.24 7.86326C141.784 6.14471 141.234 3.40563 139.158 2.41161C139.053 2.36301 138.949 2.32325 138.844 2.27465C136.436 1.18786 133.736 0.657715 130.953 0.657715C121.859 0.657715 113.611 6.76321 113.611 18.7577L113.563 21.8281H108.342C106.484 21.8281 104.979 23.3523 104.979 25.2343C104.979 27.1163 106.484 28.6405 108.342 28.6405H113.563V57.8382C113.563 59.76 115.103 61.3195 117 61.3195C118.897 61.3195 120.437 59.76 120.437 57.8382V28.6405H125.628C127.486 28.6405 128.991 27.1163 128.991 25.2343C128.991 23.3523 127.486 21.8281 125.628 21.8281H120.437L120.463 18.8638C120.463 10.8276 125.074 7.4038 130.892 7.4038C132.846 7.4038 134.648 7.79257 136.179 8.60988C136.231 8.6408 136.292 8.65406 136.349 8.68056C137.675 9.29465 139.254 8.96331 140.244 7.85884" fill="#773DBD"/>
<path d="M232.671 53.2569C228.623 49.6165 224.854 45.4328 221.282 41.0238C225.487 36.5573 229.002 31.5254 231.489 26.3034C232.235 24.7351 231.585 22.8487 230.036 22.0932C228.488 21.3378 226.625 21.996 225.879 23.5644C223.794 27.9425 220.872 32.1969 217.378 36.0316C214.085 31.6844 210.945 27.24 207.909 22.968C206.993 21.6824 205.226 21.3952 203.957 22.3185C202.688 23.2463 202.404 25.0355 203.316 26.3211C206.517 30.8185 209.828 35.497 213.313 40.0651C207.433 45.3445 200.171 49.6475 193.096 51.4014C194.758 51.0258 196.407 52.0861 196.777 53.7693C197.144 55.4305 196.106 57.1357 194.483 57.5422C194.514 57.5334 194.544 57.5334 194.575 57.5245C202.535 55.5542 210.613 50.8403 217.195 44.9954C220.872 49.5105 224.754 53.7958 228.911 57.5378C229.474 58.0458 230.18 58.28 230.878 58.2623C231.628 58.2402 232.37 57.9133 232.906 57.2992C233.944 56.1152 233.84 54.3039 232.671 53.2524" fill="#FFC629"/>
<path d="M170.62 40.233C169.551 31.5254 175.692 26.7717 181.036 26.6834H181.214C184.412 26.6834 186.706 28.2738 188.464 30.6904C188.586 30.8583 188.795 31.1278 188.773 31.1852C188.795 31.194 188.411 31.6402 187.984 32.0555C187.421 32.6077 186.492 33.4074 185.367 34.4765C182.693 37.0212 177.738 41.7439 172.155 45.7862C171.113 43.4227 170.62 40.2374 170.62 40.2374M196.773 53.7782C196.402 52.095 194.754 51.0347 193.092 51.4102C193.057 51.419 192.852 51.4676 192.852 51.4676C182.122 53.6854 176.691 50.2616 176.691 50.2616C182.069 46.2943 186.741 41.8455 189.846 38.89C190.845 37.9401 191.705 37.1184 192.145 36.7517C194.762 34.5737 195.286 32.3294 195.268 30.8273C195.255 29.9394 195.05 29.0779 194.644 28.2031C194.479 27.8232 194.191 27.3549 194.191 27.3549C193.903 26.8954 193.58 26.4669 193.249 26.1091L193.201 26.056C193.044 25.8882 192.904 25.7468 192.791 25.6452C189.942 22.6631 185.903 21.1345 181.084 21.2096C170.445 21.3864 163.135 29.0337 163.309 39.8045C163.366 43.3653 164.374 46.7449 166.219 49.5856C164.958 50.2748 162.629 51.3307 161.089 51.8917C161.037 51.9182 160.971 51.9448 160.954 51.9536C160.954 51.9536 160.945 51.958 160.941 51.9624C160.884 51.9845 160.845 52.011 160.788 52.0375C160.766 52.0464 160.744 52.0596 160.723 52.0685C159.741 52.5854 159.07 53.6235 159.07 54.8252C159.07 56.5393 160.444 57.931 162.136 57.931C162.467 57.931 162.742 57.9 163.043 57.7984L163.074 57.7896C163.231 57.7454 163.392 57.688 163.554 57.6394C165.774 56.9281 168.164 55.7044 170.681 54.242C172.91 55.8325 175.496 56.906 178.362 57.4229C179.888 57.7763 182.955 58.3462 186.793 58.3462C187.003 58.3462 187.216 58.3462 187.43 58.3418C189.816 58.3021 192.093 58.0989 194.243 57.6085L194.413 57.5731C194.435 57.5687 194.457 57.5599 194.479 57.5554C196.101 57.149 197.135 55.4393 196.773 53.7826" fill="#FF6C37"/>
<path d="M38.0112 78.4765C38.5348 78.8786 39.8112 79.6053 41.4804 79.6053C43.7878 79.6053 45.1461 78.2137 45.1461 76.4974C45.1461 72.9875 39.5821 73.6214 39.5821 71.2712C39.5821 70.328 40.4658 69.7404 41.6604 69.7404C42.6423 69.7404 43.346 70.1269 43.7878 70.3743C44.066 70.529 44.3278 70.5599 44.5242 70.2352L44.7533 69.8486C44.9006 69.5703 44.8679 69.3384 44.5897 69.1528C44.1478 68.8281 43.0678 68.3179 41.6932 68.3179C39.5821 68.3179 37.9457 69.5085 37.9457 71.3485C37.9457 74.7501 43.5096 74.209 43.5096 76.6211C43.5096 77.5643 42.7078 78.1828 41.4804 78.1828C40.2531 78.1828 39.3694 77.5797 38.9603 77.3014C38.6494 77.1159 38.4203 77.1468 38.2239 77.3942L37.9457 77.7653C37.7002 78.0745 37.7984 78.291 38.0112 78.4765Z" fill="#004438"/>
<path d="M46.457 75.4923C46.457 77.8735 48.4371 79.6053 50.9081 79.6053C53.3792 79.6053 55.3756 77.8735 55.3756 75.4923C55.3756 73.1266 53.3792 71.4103 50.9081 71.4103C48.4371 71.4103 46.457 73.1266 46.457 75.4923ZM48.0607 75.4923C48.0607 73.8688 49.3535 72.7091 50.9081 72.7091C52.4791 72.7091 53.7556 73.8688 53.7556 75.4923C53.7556 77.1313 52.4791 78.3065 50.9081 78.3065C49.3535 78.3065 48.0607 77.1313 48.0607 75.4923Z" fill="#004438"/>
<path d="M57.1289 77.2859C57.1289 79.2496 58.4545 79.4816 59.3381 79.4816C59.7473 79.4816 59.8945 79.2806 59.8945 78.9559V78.5848C59.8945 78.291 59.7145 78.1673 59.4691 78.1364C59.1254 78.1054 58.7163 77.9817 58.7163 77.1004V69.0137C58.7163 68.6735 58.5199 68.5034 58.1763 68.5034H57.669C57.3089 68.5034 57.1289 68.6735 57.1289 69.0137V77.2859Z" fill="#004438"/>
<path d="M61.3136 76.6056C61.3136 78.6775 62.2628 79.6053 64.1283 79.6053C65.7484 79.6053 66.8448 78.5384 67.2048 77.7653H67.2376C67.2376 77.7653 67.1885 77.9817 67.1885 78.2137V78.9095C67.1885 79.2496 67.3685 79.4197 67.7285 79.4197H68.1867C68.5304 79.4197 68.7267 79.2496 68.7267 78.9095V72.1061C68.7267 71.7659 68.5304 71.5959 68.1867 71.5959H67.6794C67.3194 71.5959 67.1394 71.7659 67.1394 72.1061V75.2604C67.1394 76.8066 66.1412 78.2137 64.4393 78.2137C63.1301 78.2137 62.8846 77.3478 62.8846 76.2654V72.1061C62.8846 71.7659 62.7046 71.5959 62.361 71.5959H61.8537C61.4936 71.5959 61.3136 71.7659 61.3136 72.1061V76.6056Z" fill="#004438"/>
<path d="M70.4763 75.5078C70.4763 77.858 72.2928 79.6053 74.8947 79.6053C76.3839 79.6053 77.3821 79.0023 77.8403 78.6466C78.1022 78.4765 78.1513 78.2291 77.9876 77.9663L77.8567 77.7344C77.6603 77.4406 77.4149 77.4096 77.1203 77.5952C76.7276 77.8735 76.0075 78.3065 75.0093 78.3065C73.3074 78.3065 72.0964 77.0849 72.0964 75.4923C72.0964 73.8843 73.3074 72.7091 74.9766 72.7091C75.8439 72.7091 76.4821 73.0648 76.8257 73.2967C77.1367 73.4668 77.3658 73.4513 77.5621 73.173L77.7258 72.9411C77.9222 72.6782 77.9058 72.4154 77.6276 72.2453C77.1858 71.9206 76.2857 71.4103 74.8947 71.4103C72.3092 71.4103 70.4763 73.1885 70.4763 75.5078Z" fill="#004438"/>
<path d="M80.2336 70.0342H80.79C81.1337 70.0342 81.3301 69.8486 81.3301 69.5239V69.0137C81.3301 68.6735 81.1337 68.5034 80.79 68.5034H80.2336C79.8736 68.5034 79.6936 68.6735 79.6936 69.0137V69.5239C79.6936 69.8486 79.8736 70.0342 80.2336 70.0342ZM79.71 78.9095C79.71 79.2496 79.9064 79.4197 80.25 79.4197H80.7573C81.1173 79.4197 81.2973 79.2496 81.2973 78.9095V72.1061C81.2973 71.7659 81.1173 71.5959 80.7573 71.5959H80.25C79.9064 71.5959 79.71 71.7659 79.71 72.1061V78.9095Z" fill="#004438"/>
<path d="M83.0533 75.4923C83.0533 77.8735 85.0334 79.6053 87.5045 79.6053C89.9755 79.6053 91.972 77.8735 91.972 75.4923C91.972 73.1266 89.9755 71.4103 87.5045 71.4103C85.0334 71.4103 83.0533 73.1266 83.0533 75.4923ZM84.657 75.4923C84.657 73.8688 85.9498 72.7091 87.5045 72.7091C89.0754 72.7091 90.3519 73.8688 90.3519 75.4923C90.3519 77.1313 89.0754 78.3065 87.5045 78.3065C85.9498 78.3065 84.657 77.1313 84.657 75.4923Z" fill="#004438"/>
<path d="M93.7253 78.9095C93.7253 79.2496 93.9216 79.4197 94.2653 79.4197H94.7726C95.1326 79.4197 95.3126 79.2496 95.3126 78.9095V75.6779C95.3126 74.0543 96.4745 72.7864 98.0782 72.7864C99.4037 72.7864 99.6328 73.6523 99.6328 74.7501V78.9095C99.6328 79.2496 99.8292 79.4197 100.173 79.4197H100.68C101.04 79.4197 101.22 79.2496 101.22 78.9095V74.41C101.22 72.4154 100.336 71.4103 98.3891 71.4103C96.5727 71.4103 95.5744 72.57 95.2471 73.2503H95.2144C95.2144 73.2503 95.2635 73.0338 95.2635 72.8019V72.1061C95.2635 71.7659 95.0835 71.5959 94.7235 71.5959H94.2653C93.9216 71.5959 93.7253 71.7659 93.7253 72.1061V78.9095Z" fill="#004438"/>
<path d="M102.87 75.5078C102.87 77.8271 104.654 79.6053 107.256 79.6053C108.581 79.6053 109.563 79.095 110.054 78.7703C110.332 78.6157 110.381 78.3528 110.218 78.09L110.07 77.858C109.89 77.5643 109.645 77.5333 109.334 77.688C108.958 77.9508 108.254 78.3065 107.354 78.3065C105.881 78.3065 104.588 77.3633 104.49 75.6624H110.021C110.349 75.6624 110.578 75.415 110.578 75.1367C110.578 72.9565 109.301 71.4103 107.01 71.4103C104.654 71.4103 102.87 73.0184 102.87 75.5078ZM104.556 74.6728C104.785 73.3585 105.767 72.5854 106.978 72.5854C108.074 72.5854 108.941 73.2967 108.99 74.6728H104.556Z" fill="#004438"/>
<path d="M111.984 78.7549C112.442 79.0796 113.391 79.6053 114.766 79.6053C116.549 79.6053 117.744 78.6312 117.744 77.3014C117.744 74.6419 113.473 75.1986 113.473 73.6369C113.473 72.972 114.078 72.6473 114.864 72.6473C115.649 72.6473 116.206 72.9101 116.549 73.0957C116.86 73.2349 117.106 73.2039 117.269 72.9256L117.417 72.6937C117.58 72.4154 117.531 72.1525 117.237 72.0133C116.844 71.7814 116.091 71.4103 114.946 71.4103C113.326 71.4103 111.951 72.1834 111.951 73.6678C111.951 76.3118 116.222 75.8016 116.222 77.3323C116.222 77.9972 115.633 78.3683 114.815 78.3683C113.849 78.3683 113.162 77.9663 112.786 77.7344C112.458 77.5643 112.246 77.5797 112.033 77.8426L111.869 78.0591C111.689 78.3219 111.706 78.5848 111.984 78.7549Z" fill="#004438"/>
<path d="M123.07 75.5078C123.07 77.8271 124.854 79.6053 127.456 79.6053C128.781 79.6053 129.763 79.095 130.254 78.7703C130.532 78.6157 130.581 78.3528 130.418 78.09L130.27 77.858C130.09 77.5643 129.845 77.5333 129.534 77.688C129.158 77.9508 128.454 78.3065 127.554 78.3065C126.081 78.3065 124.788 77.3633 124.69 75.6624H130.221C130.548 75.6624 130.778 75.415 130.778 75.1367C130.778 72.9565 129.501 71.4103 127.21 71.4103C124.854 71.4103 123.07 73.0184 123.07 75.5078ZM124.755 74.6728C124.985 73.3585 125.966 72.5854 127.177 72.5854C128.274 72.5854 129.141 73.2967 129.19 74.6728H124.755Z" fill="#004438"/>
<path d="M132.511 78.9095C132.511 79.2496 132.707 79.4197 133.051 79.4197H133.558C133.918 79.4197 134.098 79.2496 134.098 78.9095V75.6779C134.098 74.0543 135.26 72.7864 136.864 72.7864C138.189 72.7864 138.419 73.6523 138.419 74.7501V78.9095C138.419 79.2496 138.615 79.4197 138.959 79.4197H139.466C139.826 79.4197 140.006 79.2496 140.006 78.9095V74.41C140.006 72.4154 139.122 71.4103 137.175 71.4103C135.358 71.4103 134.36 72.57 134.033 73.2503H134C134 73.2503 134.049 73.0338 134.049 72.8019V72.1061C134.049 71.7659 133.869 71.5959 133.509 71.5959H133.051C132.707 71.5959 132.511 71.7659 132.511 72.1061V78.9095Z" fill="#004438"/>
<path d="M146.271 78.9095C146.271 79.2496 146.467 79.4197 146.811 79.4197H147.318C147.678 79.4197 147.858 79.2496 147.858 78.9095V75.7707C147.858 74.3172 148.774 72.771 150.345 72.771C151.622 72.771 151.785 73.7142 151.785 74.7347V78.9095C151.785 79.2496 151.965 79.4197 152.309 79.4197H152.833C153.176 79.4197 153.356 79.2496 153.356 78.9095V75.7707C153.356 74.2708 154.273 72.771 155.811 72.771C157.038 72.771 157.267 73.6369 157.267 74.7347V78.9095C157.267 79.2496 157.464 79.4197 157.807 79.4197H158.315C158.675 79.4197 158.855 79.2496 158.855 78.9095V74.41C158.855 72.4154 158.004 71.4103 156.122 71.4103C154.78 71.4103 153.635 72.2762 153.193 73.1885H153.16C152.865 72.0133 152.064 71.4103 150.673 71.4103C149.363 71.4103 148.202 72.338 147.792 73.2503H147.76C147.76 73.2503 147.809 73.0338 147.809 72.8019V72.1061C147.809 71.7659 147.629 71.5959 147.269 71.5959H146.811C146.467 71.5959 146.271 71.7659 146.271 72.1061V78.9095Z" fill="#004438"/>
<path d="M160.497 75.4923C160.497 77.8735 162.477 79.6053 164.948 79.6053C167.419 79.6053 169.415 77.8735 169.415 75.4923C169.415 73.1266 167.419 71.4103 164.948 71.4103C162.477 71.4103 160.497 73.1266 160.497 75.4923ZM162.101 75.4923C162.101 73.8688 163.393 72.7091 164.948 72.7091C166.519 72.7091 167.795 73.8688 167.795 75.4923C167.795 77.1313 166.519 78.3065 164.948 78.3065C163.393 78.3065 162.101 77.1313 162.101 75.4923Z" fill="#004438"/>
<path d="M172.987 79.0177C173.085 79.296 173.281 79.4197 173.592 79.4197H174.509C174.82 79.4197 175.016 79.296 175.114 79.0177L177.798 72.1834C177.945 71.8278 177.765 71.5959 177.372 71.5959H176.816C176.505 71.5959 176.309 71.7196 176.211 72.0133L174.345 76.8839C174.198 77.3169 174.05 77.9508 174.05 77.9508H174.018C174.018 77.9508 173.887 77.3169 173.723 76.8839L171.858 72.0133C171.759 71.7196 171.563 71.5959 171.252 71.5959H170.696C170.303 71.5959 170.139 71.8278 170.27 72.1834L172.987 79.0177Z" fill="#004438"/>
<path d="M179.795 70.0342H180.351C180.695 70.0342 180.891 69.8486 180.891 69.5239V69.0137C180.891 68.6735 180.695 68.5034 180.351 68.5034H179.795C179.435 68.5034 179.255 68.6735 179.255 69.0137V69.5239C179.255 69.8486 179.435 70.0342 179.795 70.0342ZM179.271 78.9095C179.271 79.2496 179.468 79.4197 179.811 79.4197H180.318C180.678 79.4197 180.858 79.2496 180.858 78.9095V72.1061C180.858 71.7659 180.678 71.5959 180.318 71.5959H179.811C179.468 71.5959 179.271 71.7659 179.271 72.1061V78.9095Z" fill="#004438"/>
<path d="M183.154 78.9095C183.154 79.2496 183.351 79.4197 183.695 79.4197H184.202C184.562 79.4197 184.742 79.2496 184.742 78.9095V75.7707C184.742 74.3172 185.658 72.771 187.229 72.771C188.506 72.771 188.669 73.7142 188.669 74.7347V78.9095C188.669 79.2496 188.849 79.4197 189.193 79.4197H189.717C190.06 79.4197 190.24 79.2496 190.24 78.9095V75.7707C190.24 74.2708 191.157 72.771 192.695 72.771C193.922 72.771 194.151 73.6369 194.151 74.7347V78.9095C194.151 79.2496 194.348 79.4197 194.691 79.4197H195.199C195.559 79.4197 195.739 79.2496 195.739 78.9095V74.41C195.739 72.4154 194.888 71.4103 193.006 71.4103C191.664 71.4103 190.519 72.2762 190.077 73.1885H190.044C189.749 72.0133 188.948 71.4103 187.557 71.4103C186.247 71.4103 185.086 72.338 184.676 73.2503H184.644C184.644 73.2503 184.693 73.0338 184.693 72.8019V72.1061C184.693 71.7659 184.513 71.5959 184.153 71.5959H183.695C183.351 71.5959 183.154 71.7659 183.154 72.1061V78.9095Z" fill="#004438"/>
<path d="M198.445 70.0342H199.001C199.345 70.0342 199.541 69.8486 199.541 69.5239V69.0137C199.541 68.6735 199.345 68.5034 199.001 68.5034H198.445C198.085 68.5034 197.905 68.6735 197.905 69.0137V69.5239C197.905 69.8486 198.085 70.0342 198.445 70.0342ZM197.921 78.9095C197.921 79.2496 198.117 79.4197 198.461 79.4197H198.968C199.328 79.4197 199.508 79.2496 199.508 78.9095V72.1061C199.508 71.7659 199.328 71.5959 198.968 71.5959H198.461C198.117 71.5959 197.921 71.7659 197.921 72.1061V78.9095Z" fill="#004438"/>
<path d="M201.281 75.5078C201.281 77.8271 203.064 79.6053 205.666 79.6053C206.992 79.6053 207.974 79.095 208.465 78.7703C208.743 78.6157 208.792 78.3528 208.628 78.09L208.481 77.858C208.301 77.5643 208.055 77.5333 207.745 77.688C207.368 77.9508 206.664 78.3065 205.764 78.3065C204.292 78.3065 202.999 77.3633 202.901 75.6624H208.432C208.759 75.6624 208.988 75.415 208.988 75.1367C208.988 72.9565 207.712 71.4103 205.421 71.4103C203.064 71.4103 201.281 73.0184 201.281 75.5078ZM202.966 74.6728C203.195 73.3585 204.177 72.5854 205.388 72.5854C206.484 72.5854 207.352 73.2967 207.401 74.6728H202.966Z" fill="#004438"/>
<path d="M210.722 78.9095C210.722 79.2496 210.918 79.4197 211.262 79.4197H211.769C212.129 79.4197 212.309 79.2496 212.309 78.9095V75.6779C212.309 74.0543 213.471 72.7864 215.075 72.7864C216.4 72.7864 216.629 73.6523 216.629 74.7501V78.9095C216.629 79.2496 216.826 79.4197 217.169 79.4197H217.676C218.037 79.4197 218.217 79.2496 218.217 78.9095V74.41C218.217 72.4154 217.333 71.4103 215.385 71.4103C213.569 71.4103 212.571 72.57 212.243 73.2503H212.211C212.211 73.2503 212.26 73.0338 212.26 72.8019V72.1061C212.26 71.7659 212.08 71.5959 211.72 71.5959H211.262C210.918 71.5959 210.722 71.7659 210.722 72.1061V78.9095Z" fill="#004438"/>
<path d="M220.703 76.6056C220.703 78.5848 222.143 79.4816 223.779 79.4816C224.221 79.4816 224.434 79.327 224.434 78.9713V78.6466C224.434 78.291 224.287 78.1673 223.861 78.1364C223.256 78.09 222.29 77.858 222.29 76.3737V72.8947H223.747C224.09 72.8947 224.27 72.7091 224.27 72.3844V72.1834C224.27 71.8587 224.09 71.6732 223.73 71.6732H222.29V69.9569C222.29 69.6167 222.11 69.4466 221.75 69.4466H221.276C220.932 69.4466 220.736 69.6167 220.736 69.9569V71.6732H220.146C219.786 71.6732 219.606 71.8587 219.606 72.1834V72.3844C219.606 72.7091 219.786 72.8947 220.13 72.8947H220.703V76.6056Z" fill="#004438"/>
<path d="M225.284 75.4923C225.284 77.8735 227.264 79.6053 229.735 79.6053C232.206 79.6053 234.202 77.8735 234.202 75.4923C234.202 73.1266 232.206 71.4103 229.735 71.4103C227.264 71.4103 225.284 73.1266 225.284 75.4923ZM226.887 75.4923C226.887 73.8688 228.18 72.7091 229.735 72.7091C231.306 72.7091 232.582 73.8688 232.582 75.4923C232.582 77.1313 231.306 78.3065 229.735 78.3065C228.18 78.3065 226.887 77.1313 226.887 75.4923Z" fill="#004438"/>
</svg>
